PathFileType	4	(X/Y/Z)	E:\Qualisys_Data\Carbon_Farble_Plate\Data\Amateur_Runner\S2\T2\S2T2V21_c3d.trc
DataRate	CameraRate	NumFrames	NumMarkers	Units	OrigDataRate	OrigDataStartFrame	OrigNumFrames
200.000000	200.000000	4	39	mm	200.000000	234	313
Frame#	Time	LSHO			RSHO			LICST			RICST			LASIS			LHEEL			RASIS			LTROC			RTROC			SACR			LTH1			LSK4			LTH2			LTH3			RHM5			LSK2			LTH4			RTH1			LTOE			RTH2			RTH3			RTH4			LLEP			RLEP			LSK1			LSK3			RSK1			LHM5			RSK2			LFT1			RSK3			RSK4			LLME			RLME			RTOE			RHEEL			RFT1			RFT2			LFT2			
		X1	Y1	Z1	X2	Y2	Z2	X3	Y3	Z3	X4	Y4	Z4	X5	Y5	Z5	X6	Y6	Z6	X7	Y7	Z7	X8	Y8	Z8	X9	Y9	Z9	X10	Y10	Z10	X11	Y11	Z11	X12	Y12	Z12	X13	Y13	Z13	X14	Y14	Z14	X15	Y15	Z15	X16	Y16	Z16	X17	Y17	Z17	X18	Y18	Z18	X19	Y19	Z19	X20	Y20	Z20	X21	Y21	Z21	X22	Y22	Z22	X23	Y23	Z23	X24	Y24	Z24	X25	Y25	Z25	X26	Y26	Z26	X27	Y27	Z27	X28	Y28	Z28	X29	Y29	Z29	X30	Y30	Z30	X31	Y31	Z31	X32	Y32	Z32	X33	Y33	Z33	X34	Y34	Z34	X35	Y35	Z35	X36	Y36	Z36	X37	Y37	Z37	X38	Y38	Z38	X39	Y39	Z39	

235	1.17	1541.679931640625	1486.850341796875	-474.1791076660156	1643.39013671875	1464.817626953125	-197.1461486816406	1565.135375976562	1015.335327148438	-462.6281433105469	1617.67333984375	1003.7158203125	-168.9807281494141	1624.93310546875	967.0084838867188	-449.2586975097656	1735.794921875	78.50206756591797	-310.489501953125	1668.62646484375	952.4510498046876	-196.7822265625	1503.164306640625	889.277587890625	-465.9945983886719	1514.23583984375	918.45947265625	-147.0861053466797	1498.3359375	1051.587524414062	-297.1318054199219	1680.98193359375	665.0436401367188	-480.084716796875	1693.184936523438	283.8392333984375	-421.1860046386719	1601.265258789062	638.1399536132812	-469.9100036621094	1714.839233398438	573.4586791992188	-445.3058776855469	955.4955444335938	423.0761413574219	-177.7165985107422	1674.95458984375	379.0454406738281	-439.8395385742188	1634.483276367188	549.2713012695312	-434.1092529296875	1557.0927734375	640.7996826171875	-152.0736236572266	1953.814819335938	177.9668731689453	-384.509765625	1484.707397460938	667.76318359375	-146.0864105224609	1522.113647460938	546.2337646484375	-158.9177551269531	1447.482666015625	576.59912109375	-161.40869140625	1692.664428710938	517.5321655273438	-434.0326232910156	1453.0556640625	532.5733032226562	-155.8928375244141	1751.741821289062	394.9149780273438	-432.4840698242188	1769.295532226562	299.0763854980469	-418.8149108886719	1348.2880859375	481.0355529785156	-152.4866485595703	1905.314208984375	124.1776657104492	-425.5061340332031	1343.4248046875	561.8643188476562	-153.8869781494141	1763.463012695312	62.83575439453125	-289.0443420410156	1246.42333984375	474.8207397460938	-161.0628051757812	1245.271484375	554.0006103515625	-166.3848114013672	1776.185180664062	114.3192901611328	-383.6561279296875	1059.572631835938	505.513427734375	-199.2790069580078	953.9724731445312	339.5296325683594	-220.4439239501953	1082.27880859375	550.6705932617188	-263.5536804199219	1057.768798828125	539.5419311523438	-299.1305236816406	1051.02001953125	568.135009765625	-249.9766235351562	1751.59033203125	46.13365173339844	-338.6527099609375
236	1.175	1562.669799804688	1481.4404296875	-476.1737365722656	1663.389404296875	1460.426025390625	-198.2264251708984	1584.5888671875	1010.887084960938	-462.934326171875	1638.360107421875	999.5662231445312	-168.9675750732422	1644.5029296875	962.6646728515624	-449.6974182128906	1747.17822265625	73.94669342041016	-310.3976745605469	1689.038208007812	948.2828369140624	-197.1704559326172	1523.096923828125	884.810791015625	-466.1189270019531	1535.037231445312	913.4782104492188	-145.8045959472656	1517.874267578125	1046.795043945312	-297.2389221191406	1703.148193359375	663.0825805664062	-478.4361267089844	1708.428588867188	279.7442626953125	-420.1871643066406	1623.68994140625	635.8088989257812	-468.4510498046875	1737.49560546875	571.629638671875	-443.9300231933594	981.6185302734376	431.4952392578125	-179.0916900634766	1692.578491210938	375.6059875488281	-439.0596923828125	1657.5400390625	547.2265014648438	-432.5061340332031	1581.223266601562	635.9528198242188	-151.0970458984375	1967.4921875	170.1549072265625	-381.5374755859375	1508.810668945312	661.3434448242188	-145.6784057617188	1547.8603515625	540.6851196289062	-157.3752746582031	1472.698364257812	569.7869873046875	-160.1461486816406	1713.649291992188	514.0940551757812	-433.6355285644531	1479.57958984375	525.8822021484375	-154.3433074951172	1769.91162109375	389.6085205078125	-432.0874328613281	1785.325561523438	293.2584228515625	-418.0393981933594	1374.458374023438	477.774658203125	-151.7668914794922	1918.47900390625	117.0592727661133	-423.3040161132812	1372.3525390625	558.554931640625	-153.7617492675781	1774.523193359375	57.90338134765625	-288.4493103027344	1272.52001953125	474.5218811035156	-161.0603332519531	1274.11865234375	553.7626342773438	-166.8506469726562	1789.21044921875	108.7968902587891	-382.4761962890625	1087.339965820312	511.0630493164062	-201.172119140625	978.7444458007812	347.3593444824219	-221.0323486328125	1111.627197265625	555.6363525390625	-265.3327026367188	1086.635375976562	544.8753051757812	-300.7632751464844	1080.635131835938	573.8785400390625	-251.9171447753906	1762.911254882812	41.05280303955078	-338.5770568847656
237	1.18	1583.594116210938	1475.4443359375	-478.540283203125	1683.38232421875	1456.04443359375	-199.2854614257812	1603.854125976562	1006.501586914062	-463.2356567382812	1658.355712890625	994.8416748046876	-169.3541717529297	1663.443481445312	958.093017578125	-450.6293334960938	1757.487182617188	72.2219009399414	-309.9299011230469	1709.335571289062	944.0300903320312	-197.7859649658203	1542.378295898438	880.0717163085938	-465.9621887207031	1556.49853515625	908.2146606445312	-145.0645446777344	1537.503051757812	1041.776611328125	-297.1201477050781	1725.277221679688	661.4111938476562	-476.6210327148438	1723.652587890625	275.7685852050781	-419.7042846679688	1646.240234375	634.0990600585938	-467.1344299316406	1759.589233398438	569.9450073242188	-441.7517700195312	1008.696411132812	439.0427551269531	-180.0987243652344	1709.616821289062	371.8598327636719	-438.5128173828125	1679.479614257812	545.28173828125	-432.3695983886719	1605.853637695312	630.3158569335938	-150.0127410888672	1980.444702148438	161.3371734619141	-378.4122924804688	1532.590698242188	655.0491333007812	-145.0525970458984	1573.893676757812	534.8619995117188	-155.6961364746094	1498.329467773438	562.3765258789062	-159.2499237060547	1734.884155273438	510.6812133789062	-433.3115234375	1506.166870117188	519.73193359375	-153.0626983642578	1787.06005859375	384.5152587890625	-431.8417358398438	1801.160522460938	286.7493286132812	-416.7265930175781	1401.33837890625	473.94091796875	-151.6619262695312	1930.800537109375	109.5406188964844	-421.0474548339844	1401.56298828125	555.1039428710938	-153.2873687744141	1783.092529296875	54.3031005859375	-287.9183654785156	1299.318237304688	474.1898803710938	-161.6858215332031	1303.264038085938	553.52734375	-167.4958190917969	1801.0146484375	103.1628112792969	-381.5897216796875	1115.777099609375	516.6242065429688	-202.3675231933594	1004.3759765625	354.8959350585938	-221.3189086914062	1141.172973632812	560.3912353515625	-266.9765014648438	1116.467651367188	549.3872680664062	-302.2030944824219	1110.79150390625	578.9716796875	-253.5829162597656	1772.4130859375	39.21748733520508	-337.68505859375
238	1.185	1604.874877929688	1469.627319335938	-480.8032836914062	1703.325805664062	1451.216552734375	-200.4595184326172	1622.775634765625	1001.717529296875	-463.4671630859375	1678.424072265625	990.1240234375	-169.8853149414062	1682.632446289062	953.295654296875	-451.3866271972656	1766.572265625	75.82484436035156	-310.5308532714844	1729.373657226562	939.300537109375	-198.5011444091797	1561.3623046875	875.2843627929688	-465.5980224609375	1577.195922851562	902.3450317382812	-144.1799163818359	1556.935668945312	1036.692016601562	-297.2067565917969	1747.850219726562	659.82763671875	-474.551513671875	1737.889892578125	271.1113891601562	-419.3723754882812	1668.965454101562	633.070068359375	-466.267333984375	1781.735473632812	567.7417602539062	-439.5897521972656	1036.621826171875	446.43994140625	-180.9155883789062	1726.392700195312	368.0590209960938	-437.7473754882812	1701.224609375	542.9794311523438	-432.7933349609375	1630.776733398438	625.16259765625	-148.5227661132812	1994.375244140625	150.9519653320312	-375.2568969726562	1556.590698242188	648.48583984375	-144.3982391357422	1600.422973632812	528.933349609375	-153.7537078857422	1524.544799804688	555.33544921875	-157.8575134277344	1756.150146484375	507.3752746582031	-432.4305419921875	1533.91796875	513.0257568359375	-150.8401794433594	1804.197998046875	378.5712280273438	-431.6894226074219	1816.48046875	280.7661437988281	-416.0699462890625	1428.2109375	470.0672912597656	-150.9986877441406	1942.639282226562	100.9774169921875	-418.9537048339844	1431.231567382812	551.7509155273438	-153.40185546875	1790.849243164062	56.37204742431641	-288.14697265625	1326.687744140625	473.4808044433594	-161.7393188476562	1333.098510742188	553.0294799804688	-168.2500305175781	1812.091430664062	98.09970855712892	-380.949462890625	1145.031372070312	521.5302734375	-203.7559661865234	1030.791870117188	361.6723937988281	-221.9231262207031	1171.452758789062	564.15380859375	-268.6961669921875	1146.825805664062	553.767822265625	-304.3042297363281	1141.444702148438	583.503662109375	-255.8574981689453	1777.485229492188	40.1054573059082	-337.3866577148438
